<?xml version="1.0" encoding="UTF-8"?>
<!-- Generator: Adobe Illustrator 26.0.2, SVG Export Plug-In . SVG Version: 6.00 Build 0)  -->
<svg enable-background="new 0 0 3088 512" version="1.1" viewBox="0 0 3088 512" xml:space="preserve" xmlns="http://www.w3.org/2000/svg">
<title>Arknights: Endfield</title>
<desc>Action role-playing video game by Gryphline</desc>
<style type="text/css">
	.st0{fill-rule:evenodd;clip-rule:evenodd;}
</style>
<path class="st0" d="m1162.3 508.4h87.4v-160.4h196.8v-91.1h-196.8v-60.1h202.3v-91.1h-289.7v402.7zm905.5-470.1c-4.2-0.3-8.1-2.3-10.9-5.5l-7.3 7.3c4.9 4.8 11.4 7.4 18.2 7.3 12.8 0 20-7.3 20-14.6s-3.6-9.1-10.9-12.8h-5.5c-5.5-1.8-7.3-1.8-7.3-5.5s1.8-3.6 5.5-3.6l10.9 3.6 5.5-7.3c-4.7-3.7-10.5-5.6-16.4-5.5-10.9 0-18.2 5.5-18.2 14.6s5.5 9.1 10.9 10.9l5.5 3.6c5.5 1.8 7.3 1.8 7.3 5.5 0 3.6-1.8 3.6-7.3 3.6m-952.9 166c-4.7-14.6-12.1-28.2-21.9-40.1-10.8-12.4-23-23.4-36.4-32.8-16.5-9.8-34.3-17.1-52.8-21.9-23.3-5.3-47.2-7.8-71.1-7.3h-185.8v404.4h185.8c28.4-0.2 56.6-4.5 83.8-12.8 20.6-7.5 39.8-18.6 56.5-32.8 14.5-12.7 26.2-28.2 34.6-45.5 8.5-16.7 14.6-34.5 18.2-52.8 3.1-17.4 4.3-35.1 3.6-52.8v-16.4c0.8-15.3-0.5-30.6-3.6-45.5-1.8-14.9-5.5-29.6-10.9-43.7m-76.5 100.2c0 69.2-38.3 103.8-113 103.8h-178.5l87.4-87.4v-123.9h91.1c74.7 0 113 34.6 113 103.8v3.7zm448.2-306h-12.8v47.4h12.8v-47.4zm153 41.9v-21.9h-18.2v9.1h7.3v7.3c0 1.8-3.6 1.8-5.5 1.8s-12.8-5.5-12.8-14.6c-1-7 3.8-13.4 10.8-14.4 0.6-0.1 1.3-0.1 2-0.1l9.1 3.6 7.3-7.3c-4.9-3.2-10.6-5.1-16.4-5.5-13-1-24.4 8.8-25.4 21.8 0 0.6-0.1 1.3-0.1 1.9-1.2 12 7.6 22.7 19.6 23.9 2 0.2 3.9 0.1 5.9-0.2 6 0.5 11.9-1.4 16.4-5.4m-154.8 466.4h87.4v-282.4h-85.6l85.6-85.6v-34.6h-87.4v402.6zm-302.4-473.7 5.5-7.3 10.9 20h14.6l-18.2-27.3 14.6-20h-12.8l-14.6 18.2v-18.2h-12.8v47.4h12.8v-12.8zm-1095 313.3h204v-92.9h-204v-60.1h162.1l45.5-45.5v-45.5h-295v404.4h298.8v-94.7h-211.4v-65.7zm794.4-311.5h14.6l3.6 10.9h12.8l-16.5-47.3h-14.6l-16.4 47.4h12.8l3.7-11zm3.6-12.7c0.6-5 1.8-9.9 3.6-14.6 1.8 5.5 1.8 10.9 3.6 14.6v3.6h-10.9l3.7-3.6zm145.7 7.2h5.5l10.9 16.4h12.8l-10.9-18.2c5.5-2.8 9.1-8.4 9.1-14.6 0-10.9-9.1-14.6-20-14.6h-18.2v47.4h10.9v-16.4zm0-21.8h5.5c5.5 0 9.1 1.8 9.1 5.5s-3.6 7.3-9.1 7.3h-5.5v-12.8zm300.6 21.8c0-5.5-1.8-10.9-1.8-16.4l5.5 9.1 12.8 23.7h12.8v-47.3h-12.8v16.4c0 5.5 1.8 10.9 1.8 16.4l-5.5-10.9-12.8-21.9h-10.9v47.4h10.9v-16.5zm371.7 317h204v-92.9h-204v-60.1h164l45.5-45.5v-45.5h-297v404.4h300.6v-94.7h-213.2v-65.7zm-1087.6 11-178.6-253.3h-98.4v402.6h85.6v-267.7l191.3 267.8 85.6-87.4v-315.3h-85.6v253.3zm1147.7-331.6h18.2v20h10.9v-47.3h-10.9v18.2h-18.2v-18.2h-10.9v47.4h10.9v-20.1zm934.6 329.7h-1.8v3.6h1.8v-3.6zm16.4-7.2h-5.5v3.6h5.5v-3.6zm-16.4 0h-1.8v3.6h1.8v-3.6zm16.4 7.2zm29.1 72.9h-5.5l-10.9 21.9h9.1l27.3-20-12.8-7.3-7.2 5.4zm-63.7 82h408.1v-408.1h-408.1v408.1zm92.9-154.9v-9.1h7.3v-3.6h5.5c-0.1 1.4-0.8 2.7-1.8 3.6h9.1v9.1h1.8v3.6h-1.8v7.3c0 1.8-1.8 1.8-1.8 3.6h-5.5v-3.6h3.6v-7.3h-10.9c-0.1 3.9-1.4 7.7-3.6 10.9h-5.5c1.8-3.6 3.6-5.5 3.6-9.1h-3.6v-3.5l3.6-1.9zm10.9 11-5.5-3.6 3.6-3.6 3.6 3.6-1.7 3.6zm-40.1-14.6v-3.6h10.9v-3.6h3.6c0.1 1.4 0.8 2.7 1.8 3.6h9.1v3.6h-14.6v3.6h12.8c0 4.3-0.6 8.6-1.8 12.8h-9.1c0-1.8 0-3.6-1.8-3.6h7.3c0-2.5 0.6-5.1 1.8-7.3h-9.1c-1.8 3.6-3.6 9.1-9.1 10.9-1.1-0.9-1.7-2.2-1.8-3.6 4.8-3.2 7.6-8.8 7.3-14.6l-7.3 1.8zm-23.6-7.3h21.9v25.5h-21.9v-25.5zm-14.6 0h12.8v21.9c0 1.8 0 1.8-1.8 3.6h-5.5v-3.6h5.5v-5.5h-5.5c-1.8 3.6-1.8 7.3-5.5 9.1h-3.6c4.2-2.8 6.3-7.8 5.5-12.8l-1.9-12.7zm-12.8 0h10.9v18.2h-10.9v-18.2zm-1.8 72.9 23.7-41.9h23.7l-32.8 61.9h-14.6v-20zm52.8 74.7-52.8 10.9v-20l52.8-9.1v18.2zm337.1 10.9h-63.8l-18.2-10.9v-47.4l-10.9 3.6v-23.7h-7.3v29.1l12.8-5.5v27.3l-43.7 16.4v10.9l-52.8-36.4v36.4h-23.8v-36.4l-51 36.4h-32.8l-43.7-31 16.4-12.8 43.7 29.1 67.4-45.5v-3.6h-41.9v-20h41.9v-12.8h-54.7v5.5l-21.9 14.6 25.5 18.2v21.9l-41.9-27.3-38.3 25.5v3.6l-51 10.9v-7.3l41.9-72.9h9.1l18.2-23.7h23.7l-9.1 10.9h98.4v-10.9h23.7v10.9h54.7v20h7.3v-25.5h21.9v25.5h12.8v16.4l5.5-3.6v-31h21.9v23.7h5.5v-36.4h21.9v25.5l27.3-10.9v67.4l-21.9 9.1v-43.7h-5.5v43.7l-21.9 9.1v-41.9h-5.5v47.4h60.1v22.1zm-317-47.4 16.4-12.8 23.7 16.4v23.7l-40.1-27.3zm-859.9-448.1h12.8v38.3h12.8v-38.3h12.8v-9.1h-38.3l-0.1 9.1zm1043.9 399h-51v12.8h41.9v20h-41.9v3.6l49.2 32.8v-9.1l12.8-5.5v-36.4h-10.9l-0.1-18.2zm-167.6 9.1 12.8-9.1h-27.3l14.5 9.1zm-147.6-211.4c-3.9-14.9-11.4-28.7-21.9-40.1-10.3-12.8-22.6-23.8-36.4-32.8-16.3-10.1-34.2-17.5-52.8-21.9-23.3-5.3-47.2-7.8-71.1-7.3h-185.8v306.2l87.4-87.4v-124h91.1c76.5 0 113 34.6 113 103.8v3.6c0 69.2-36.4 103.8-113 103.8h-178.5v98.4h185.8c28.4-0.1 56.6-4.4 83.8-12.8 20.8-7.1 40-18.2 56.5-32.8 14.5-12.7 26.2-28.2 34.6-45.5 9.3-16.3 15.4-34.3 18.2-52.8 3.7-17.4 5.5-35.1 5.5-52.8v-16.4c-0.2-15.2-1.4-30.5-3.6-45.5-3.4-14.7-7.7-29.3-12.8-43.7zm103.9 154.9h-10.9v5.5h10.9v-5.5zm-694.2-255.1h-87.4v402.6h282.4v-100.1h-194.9v-302.5zm694.2 246h-10.9v3.6h10.9v-3.6zm41.9 1.8v5.5h3.6l-3.6-3.6m5.4 3.6h3.6v-5.5h-5.5c1.8 1.8 3.6 1.8 3.6 3.6l-1.7 1.9z"/>
</svg>